<?xml version="1.0" standalone="no"?>
<!DOCTYPE svg PUBLIC "-//W3C//DTD SVG 20010904//EN"
 "http://www.w3.org/TR/2001/REC-SVG-20010904/DTD/svg10.dtd">
<svg version="1.0" xmlns="http://www.w3.org/2000/svg"
 width="2286.000000pt" height="2286.000000pt" viewBox="0 0 2286.000000 2286.000000"
 preserveAspectRatio="xMidYMid meet">
<metadata>
Created by potrace 1.11, written by Peter Selinger 2001-2013
</metadata>
<g transform="translate(0.000000,2286.000000) scale(0.100000,-0.100000)"
fill="#000000" stroke="none">
<path d="M19321 14411 c-8 -5 -764 -758 -1680 -1674 -1664 -1662 -1666 -1664
-1714 -1671 l-47 -7 0 1482 c0 1127 -2 1485 -11 1496 -36 43 -31 48 -1013
-933 l-941 -942 -48 -6 -47 -6 0 936 c0 688 -3 940 -11 950 -37 45 22 101
-1878 -1802 -1134 -1136 -1820 -1817 -1834 -1818 -12 -2 -30 -7 -41 -11 -12
-5 -21 -3 -27 6 -5 8 -9 788 -9 1810 0 1761 0 1796 -19 1813 -12 11 -27 15
-39 12 -10 -4 -363 -348 -783 -766 -420 -418 -768 -764 -774 -769 -5 -6 -373
-374 -817 -818 -444 -444 -819 -812 -833 -817 -16 -6 -35 -6 -52 0 l-28 9 -2
1570 -3 1570 -20 14 c-18 12 -25 12 -51 0 -16 -8 -447 -431 -957 -941 -511
-510 -940 -932 -956 -937 -15 -6 -36 -11 -47 -11 -19 0 -19 17 -19 938 0 716
-3 941 -12 950 -21 21 -66 13 -102 -19 -48 -42 -3907 -3905 -3917 -3921 -17
-26 -9 -49 24 -68 31 -19 52 -20 672 -20 l640 0 1021 1021 c936 935 1023 1020
1050 1017 l29 -3 3 -934 c1 -670 5 -938 13 -948 35 -42 33 -44 874 798 734
735 814 811 847 816 l38 6 0 -938 0 -937 -661 -661 c-363 -364 -671 -673 -684
-688 -15 -19 -21 -36 -18 -53 9 -43 53 -46 721 -46 l617 0 1641 1641 c1507
1507 1644 1641 1675 1642 l34 2 5 -858 c4 -748 7 -859 20 -867 9 -6 395 -10
995 -10 l980 0 1021 1021 c934 934 1023 1020 1050 1017 l29 -3 3 -934 c2 -852
4 -936 19 -953 9 -10 23 -18 32 -18 8 0 384 369 836 820 747 747 824 820 853
820 l32 0 0 -857 c0 -472 4 -864 8 -871 5 -7 19 -15 33 -17 13 -3 25 -9 27
-15 3 -7 726 -10 2185 -10 l2182 0 337 338 c316 316 337 339 340 375 1 25 -3
41 -12 47 -9 6 -645 10 -1580 12 -861 1 -1578 2 -1595 2 -23 1 -31 6 -33 23
-2 12 1 30 6 39 5 8 226 234 492 500 l484 484 471 0 470 0 364 364 c265 265
362 368 359 382 -3 18 -21 19 -448 22 l-445 2 525 525 525 525 940 0 940 0
337 338 c336 336 337 337 334 376 -2 21 -10 42 -17 47 -19 12 -2890 11 -2908
0z"/>
<path d="M5 9790 c-3 -5 -1 -10 4 -10 6 0 11 5 11 10 0 6 -2 10 -4 10 -3 0 -8
-4 -11 -10z"/>
<path d="M7883 9033 c20 -2 54 -2 75 0 20 2 3 4 -38 4 -41 0 -58 -2 -37 -4z"/>
<path d="M8457 9033 c18 -2 50 -2 70 0 21 2 7 4 -32 4 -38 0 -55 -2 -38 -4z"/>
</g>
</svg>
